<?xml version="1.0" standalone="no"?>
<!DOCTYPE svg PUBLIC "-//W3C//DTD SVG 20010904//EN"
 "http://www.w3.org/TR/2001/REC-SVG-20010904/DTD/svg10.dtd">
<svg version="1.0" xmlns="http://www.w3.org/2000/svg"
 width="400.000000pt" height="400.000000pt" viewBox="0 0 400.000000 400.000000"
 preserveAspectRatio="xMidYMid meet">
<metadata>
Created by potrace 1.11, written by Peter Selinger 2001-2013
</metadata>
<g transform="translate(0.000000,400.000000) scale(0.100000,-0.100000)"
fill="#000000" stroke="none">
<path d="M1855 3579 c-100 -13 -131 -19 -215 -39 -289 -71 -545 -239 -686
-452 -46 -69 -108 -207 -118 -263 -3 -16 -9 -55 -14 -85 -6 -30 -9 -100 -7
-155 10 -327 159 -542 483 -696 161 -76 333 -128 717 -214 454 -103 595 -205
563 -410 -26 -171 -155 -269 -404 -309 -71 -12 -331 -13 -389 -3 -16 3 -50 9
-75 12 -149 20 -328 87 -505 190 -104 61 -169 85 -228 85 -135 0 -243 -151
-226 -316 8 -81 40 -137 114 -197 194 -157 530 -274 875 -304 165 -15 516 -8
590 12 8 2 31 7 50 10 220 37 464 155 618 299 51 48 137 164 170 231 108 215
116 506 20 713 -70 150 -217 280 -433 382 -126 59 -378 140 -590 190 -215 50
-266 63 -365 97 -223 76 -311 162 -312 306 -1 150 73 260 224 330 108 50 295
72 496 57 151 -11 341 -79 505 -183 154 -97 248 -125 330 -98 116 39 193 216
153 353 -21 73 -79 137 -188 208 -210 139 -441 218 -728 249 -96 10 -349 10
-425 0z"/>
</g>
</svg>
