<svg xmlns="http://www.w3.org/2000/svg" xmlns:xlink="http://www.w3.org/1999/xlink" viewBox="0 0 250.93 25.88"><defs><style>.a{fill:url(#a);}.b{fill:#fff;}</style><linearGradient id="a" x1="199.24" y1="12.94" x2="250.93" y2="12.94" gradientUnits="userSpaceOnUse"><stop offset="0" stop-color="#0061f2"/><stop offset="1" stop-color="#6900c7"/></linearGradient></defs><title>sbpro-logo</title><path d="M3.63,20.47a8.66,8.66,0,0,1-3-1.5A1.53,1.53,0,0,1,0,17.68a1.51,1.51,0,0,1,.34-1,1,1,0,0,1,.79-.42,2.2,2.2,0,0,1,1.11.38,7.9,7.9,0,0,0,2.43,1.21,9.48,9.48,0,0,0,2.8.38,5.52,5.52,0,0,0,3-.69,2.26,2.26,0,0,0,1.05-2,1.73,1.73,0,0,0-1-1.58A13.33,13.33,0,0,0,7.29,12.9a19.15,19.15,0,0,1-3.86-1.19A5.36,5.36,0,0,1,1.19,10,4.42,4.42,0,0,1,.43,7.31a5,5,0,0,1,1-3A6.25,6.25,0,0,1,4,2.25,9.39,9.39,0,0,1,7.8,1.51a9.46,9.46,0,0,1,6.29,2.05,1.91,1.91,0,0,1,.49.58,1.54,1.54,0,0,1,.15.72,1.55,1.55,0,0,1-.33,1,1,1,0,0,1-.8.42,1.59,1.59,0,0,1-.5-.08,3.65,3.65,0,0,1-.61-.3,9,9,0,0,0-2.14-1.2A7.27,7.27,0,0,0,7.8,4.29,5,5,0,0,0,4.9,5,2.4,2.4,0,0,0,3.83,7.1a1.91,1.91,0,0,0,1,1.7A11.23,11.23,0,0,0,8,9.9a21.77,21.77,0,0,1,3.9,1.2,5.88,5.88,0,0,1,2.29,1.69,4.05,4.05,0,0,1,.8,2.56,4.92,4.92,0,0,1-.93,3,6.23,6.23,0,0,1-2.62,2A10,10,0,0,1,7.56,21,13.58,13.58,0,0,1,3.63,20.47Z"/><path d="M25.91,19.64a1.11,1.11,0,0,1-.53,1,2.52,2.52,0,0,1-1.5.28l-.73-.05q-4.53-.33-4.53-4.86V10.12H17.27a1.74,1.74,0,0,1-1.12-.32,1.17,1.17,0,0,1-.39-1,1.15,1.15,0,0,1,.39-.94,1.68,1.68,0,0,1,1.12-.33h1.35V5.1a1.5,1.5,0,0,1,.46-1.16,1.72,1.72,0,0,1,1.24-.43,1.68,1.68,0,0,1,1.21.43A1.5,1.5,0,0,1,22,5.1V7.58h2.3a1.72,1.72,0,0,1,1.12.33,1.15,1.15,0,0,1,.39.94,1.17,1.17,0,0,1-.39,1,1.78,1.78,0,0,1-1.12.32H22v6.12c0,1.34.61,2.05,1.84,2.14l.73.05C25.46,18.48,25.91,18.89,25.91,19.64Z"/><path d="M37.47,8.62a5.71,5.71,0,0,1,1.33,4.14v6.59a1.49,1.49,0,0,1-.43,1.14,1.63,1.63,0,0,1-1.19.42A1.55,1.55,0,0,1,36,20.48a1.49,1.49,0,0,1-.45-1.13v-.6a3.51,3.51,0,0,1-1.44,1.65,4.31,4.31,0,0,1-2.28.59,5.29,5.29,0,0,1-2.4-.54A4.23,4.23,0,0,1,27.77,19a3.69,3.69,0,0,1-.62-2.1,3.31,3.31,0,0,1,.74-2.3,4.41,4.41,0,0,1,2.41-1.21A22.19,22.19,0,0,1,34.92,13h.67v-.62A2.8,2.8,0,0,0,35,10.43a2.4,2.4,0,0,0-1.84-.61,5.93,5.93,0,0,0-1.59.23c-.54.15-1.18.38-1.92.66a2.61,2.61,0,0,1-1,.35,1,1,0,0,1-.8-.35,1.31,1.31,0,0,1-.31-.91,1.4,1.4,0,0,1,.23-.8,2.13,2.13,0,0,1,.77-.64,8.59,8.59,0,0,1,2.25-.8,11.49,11.49,0,0,1,2.58-.3A5.5,5.5,0,0,1,37.47,8.62Zm-2.73,9a3.25,3.25,0,0,0,.85-2.33v-.57h-.48a18.44,18.44,0,0,0-2.81.16,2.73,2.73,0,0,0-1.43.57,1.44,1.44,0,0,0-.43,1.11A1.81,1.81,0,0,0,31.05,18a2.12,2.12,0,0,0,1.49.56A2.89,2.89,0,0,0,34.74,17.66Z"/><path d="M50.7,7.61a1.31,1.31,0,0,1,.41,1,1.48,1.48,0,0,1-.35,1.08,2.13,2.13,0,0,1-1.27.46l-.81.08a3.28,3.28,0,0,0-2.33,1.08,3.51,3.51,0,0,0-.75,2.29v5.67a1.51,1.51,0,0,1-.48,1.2,1.81,1.81,0,0,1-1.22.42,1.76,1.76,0,0,1-1.2-.42,1.54,1.54,0,0,1-.47-1.2V8.88a1.45,1.45,0,0,1,.47-1.16,1.76,1.76,0,0,1,1.18-.41A1.63,1.63,0,0,1,45,7.7a1.43,1.43,0,0,1,.43,1.12V9.9A4,4,0,0,1,47,8.07a4.62,4.62,0,0,1,2.25-.73l.38,0A1.49,1.49,0,0,1,50.7,7.61Z"/><path d="M62,19.64a1.1,1.1,0,0,1-.52,1,2.52,2.52,0,0,1-1.5.28l-.73-.05Q54.7,20.53,54.7,16V10.12H53.35a1.74,1.74,0,0,1-1.12-.32,1.17,1.17,0,0,1-.39-1,1.15,1.15,0,0,1,.39-.94,1.68,1.68,0,0,1,1.12-.33H54.7V5.1a1.5,1.5,0,0,1,.46-1.16,1.72,1.72,0,0,1,1.24-.43,1.69,1.69,0,0,1,1.21.43,1.5,1.5,0,0,1,.46,1.16V7.58h2.29a1.68,1.68,0,0,1,1.12.33,1.15,1.15,0,0,1,.39.94,1.17,1.17,0,0,1-.39,1,1.74,1.74,0,0,1-1.12.32H58.07v6.12c0,1.34.61,2.05,1.83,2.14l.73.05C61.53,18.48,62,18.89,62,19.64Z"/><path d="M85.61,12.63a4.85,4.85,0,0,1,.9,3,4.57,4.57,0,0,1-1.74,3.8A7.52,7.52,0,0,1,80,20.78H73a1.74,1.74,0,0,1-1.23-.43,1.62,1.62,0,0,1-.44-1.22V3.4a1.58,1.58,0,0,1,.44-1.21A1.7,1.7,0,0,1,73,1.75h6.69a7.46,7.46,0,0,1,4.66,1.31,4.38,4.38,0,0,1,1.68,3.66,4.37,4.37,0,0,1-.79,2.62A4.68,4.68,0,0,1,83.06,11,4.62,4.62,0,0,1,85.61,12.63ZM74.75,9.77h4.39c2.4,0,3.59-.89,3.59-2.67a2.29,2.29,0,0,0-.89-2,4.59,4.59,0,0,0-2.7-.65H74.75Zm7.61,7.64a2.54,2.54,0,0,0,.86-2.11,2.56,2.56,0,0,0-.88-2.13,4.35,4.35,0,0,0-2.74-.7H74.75v5.61H79.6A4.59,4.59,0,0,0,82.36,17.41Z"/><path d="M92,20.16a5.81,5.81,0,0,1-2.36-2.4,7.62,7.62,0,0,1-.84-3.65,7.54,7.54,0,0,1,.84-3.63A5.76,5.76,0,0,1,92,8.1a7.92,7.92,0,0,1,7.1,0,5.71,5.71,0,0,1,2.34,2.38,7.65,7.65,0,0,1,.83,3.63,7.74,7.74,0,0,1-.83,3.65,5.76,5.76,0,0,1-2.34,2.4,8,8,0,0,1-7.1,0Zm6-2.86a5,5,0,0,0,.86-3.19A5,5,0,0,0,98,10.94,3,3,0,0,0,95.5,9.85,3,3,0,0,0,93,10.94a5,5,0,0,0-.88,3.17A5,5,0,0,0,93,17.3a3,3,0,0,0,2.48,1.08A3,3,0,0,0,98,17.3Z"/><path d="M107.46,20.16a5.87,5.87,0,0,1-2.36-2.4,7.74,7.74,0,0,1-.83-3.65,7.65,7.65,0,0,1,.83-3.63,5.82,5.82,0,0,1,2.36-2.38,7.92,7.92,0,0,1,7.1,0,5.68,5.68,0,0,1,2.35,2.38,7.65,7.65,0,0,1,.82,3.63,7.73,7.73,0,0,1-.82,3.65,5.73,5.73,0,0,1-2.35,2.4,8,8,0,0,1-7.1,0Zm6-2.86a5.06,5.06,0,0,0,.86-3.19,5.07,5.07,0,0,0-.86-3.17,3.39,3.39,0,0,0-5,0,5,5,0,0,0-.88,3.17,5.06,5.06,0,0,0,.86,3.19,3.43,3.43,0,0,0,5,0Z"/><path d="M128.63,19.64a1.1,1.1,0,0,1-.52,1,2.52,2.52,0,0,1-1.5.28l-.73-.05q-4.53-.33-4.53-4.86V10.12H120a1.74,1.74,0,0,1-1.12-.32,1.17,1.17,0,0,1-.39-1,1.15,1.15,0,0,1,.39-.94A1.68,1.68,0,0,1,120,7.58h1.35V5.1a1.5,1.5,0,0,1,.46-1.16,1.72,1.72,0,0,1,1.24-.43,1.68,1.68,0,0,1,1.21.43,1.5,1.5,0,0,1,.46,1.16V7.58H127a1.72,1.72,0,0,1,1.12.33,1.15,1.15,0,0,1,.39.94,1.17,1.17,0,0,1-.39,1,1.78,1.78,0,0,1-1.12.32h-2.3v6.12c0,1.34.61,2.05,1.84,2.14l.73.05C128.18,18.48,128.63,18.89,128.63,19.64Z"/><path d="M130.42,19.83a1.59,1.59,0,0,1-.87-1.45,1.27,1.27,0,0,1,.3-.88.92.92,0,0,1,.73-.34,3.12,3.12,0,0,1,1.27.43,11.25,11.25,0,0,0,1.57.62,6.27,6.27,0,0,0,1.83.22,3.46,3.46,0,0,0,1.76-.38,1.16,1.16,0,0,0,.64-1.05,1,1,0,0,0-.26-.73,2.46,2.46,0,0,0-.92-.5,18.29,18.29,0,0,0-2-.52A7.83,7.83,0,0,1,131,13.87a3.07,3.07,0,0,1-1-2.46,3.53,3.53,0,0,1,.71-2.14,4.5,4.5,0,0,1,1.92-1.48,6.89,6.89,0,0,1,2.8-.53,8.3,8.3,0,0,1,2.18.28,7,7,0,0,1,1.89.82,1.65,1.65,0,0,1,.87,1.44,1.36,1.36,0,0,1-.3.9.91.91,0,0,1-.73.36,1.47,1.47,0,0,1-.58-.12,8,8,0,0,1-.72-.36,12.75,12.75,0,0,0-1.34-.61,4.39,4.39,0,0,0-1.41-.2,2.74,2.74,0,0,0-1.58.4,1.3,1.3,0,0,0-.58,1.11,1.11,1.11,0,0,0,.6,1A8.36,8.36,0,0,0,136,13a13,13,0,0,1,2.83.86,3.34,3.34,0,0,1,1.48,1.21,3.62,3.62,0,0,1,.44,1.87,3.48,3.48,0,0,1-1.52,2.94,6.77,6.77,0,0,1-4.07,1.1A8.58,8.58,0,0,1,130.42,19.83Z"/><path d="M151.54,19.64a1.1,1.1,0,0,1-.52,1,2.52,2.52,0,0,1-1.5.28l-.73-.05q-4.53-.33-4.53-4.86V10.12h-1.35a1.74,1.74,0,0,1-1.12-.32,1.17,1.17,0,0,1-.39-1,1.15,1.15,0,0,1,.39-.94,1.68,1.68,0,0,1,1.12-.33h1.35V5.1a1.5,1.5,0,0,1,.46-1.16A1.72,1.72,0,0,1,146,3.51a1.68,1.68,0,0,1,1.21.43,1.5,1.5,0,0,1,.46,1.16V7.58h2.3a1.67,1.67,0,0,1,1.11.33,1.12,1.12,0,0,1,.4.94,1.14,1.14,0,0,1-.4,1,1.73,1.73,0,0,1-1.11.32h-2.3v6.12c0,1.34.61,2.05,1.84,2.14l.72.05C151.09,18.48,151.54,18.89,151.54,19.64Z"/><path d="M161.77,7.61a1.31,1.31,0,0,1,.41,1,1.48,1.48,0,0,1-.35,1.08,2.13,2.13,0,0,1-1.27.46l-.81.08a3.32,3.32,0,0,0-2.34,1.08,3.56,3.56,0,0,0-.74,2.29v5.67a1.51,1.51,0,0,1-.48,1.2,1.81,1.81,0,0,1-1.22.42,1.74,1.74,0,0,1-1.2-.42,1.54,1.54,0,0,1-.47-1.2V8.88a1.45,1.45,0,0,1,.47-1.16,1.74,1.74,0,0,1,1.17-.41,1.64,1.64,0,0,1,1.14.39,1.47,1.47,0,0,1,.43,1.12V9.9A4,4,0,0,1,158,8.07a4.69,4.69,0,0,1,2.26-.73l.37,0A1.5,1.5,0,0,1,161.77,7.61Z"/><path d="M173.39,8.62a5.71,5.71,0,0,1,1.33,4.14v6.59a1.49,1.49,0,0,1-.43,1.14,1.63,1.63,0,0,1-1.19.42,1.55,1.55,0,0,1-1.14-.43,1.49,1.49,0,0,1-.45-1.13v-.6a3.51,3.51,0,0,1-1.44,1.65,4.31,4.31,0,0,1-2.28.59,5.29,5.29,0,0,1-2.4-.54,4.23,4.23,0,0,1-1.7-1.48,3.69,3.69,0,0,1-.62-2.1,3.31,3.31,0,0,1,.74-2.3,4.41,4.41,0,0,1,2.41-1.21,22.19,22.19,0,0,1,4.62-.38h.67v-.62a2.8,2.8,0,0,0-.56-1.93,2.4,2.4,0,0,0-1.84-.61,5.93,5.93,0,0,0-1.59.23c-.54.15-1.18.38-1.92.66a2.61,2.61,0,0,1-1,.35,1,1,0,0,1-.8-.35,1.31,1.31,0,0,1-.31-.91,1.4,1.4,0,0,1,.23-.8,2.13,2.13,0,0,1,.77-.64,8.59,8.59,0,0,1,2.25-.8,11.49,11.49,0,0,1,2.58-.3A5.5,5.5,0,0,1,173.39,8.62Zm-2.73,9a3.25,3.25,0,0,0,.85-2.33v-.57H171a18.44,18.44,0,0,0-2.81.16,2.73,2.73,0,0,0-1.43.57,1.44,1.44,0,0,0-.43,1.11A1.81,1.81,0,0,0,167,18a2.12,2.12,0,0,0,1.49.56A2.89,2.89,0,0,0,170.66,17.66Z"/><path d="M188.77,8.12a5.8,5.8,0,0,1,2.08,2.44,8.56,8.56,0,0,1,.74,3.63,8.22,8.22,0,0,1-.74,3.59,5.68,5.68,0,0,1-2.07,2.38,5.56,5.56,0,0,1-3.05.83,5.2,5.2,0,0,1-2.51-.59,4.22,4.22,0,0,1-1.7-1.65v5.51a1.42,1.42,0,0,1-.45,1.11,1.79,1.79,0,0,1-1.22.4,1.76,1.76,0,0,1-1.23-.43,1.49,1.49,0,0,1-.47-1.14V8.9a1.54,1.54,0,0,1,.45-1.16,1.66,1.66,0,0,1,1.2-.43,1.74,1.74,0,0,1,1.21.43,1.51,1.51,0,0,1,.46,1.16v.68a4.14,4.14,0,0,1,1.71-1.71,5.23,5.23,0,0,1,2.55-.61A5.51,5.51,0,0,1,188.77,8.12Zm-1.44,9.16a4.76,4.76,0,0,0,.89-3.09,5.07,5.07,0,0,0-.89-3.18,3.34,3.34,0,0,0-5,0,5,5,0,0,0-.88,3.16,4.9,4.9,0,0,0,.88,3.13,3,3,0,0,0,2.49,1.11A3.05,3.05,0,0,0,187.33,17.28Z"/><path class="a" d="M250.93,7.57V18.31c0,4.17-2.83,7.57-6.3,7.57H205.55c-3.47,0-6.31-3.4-6.31-7.57V7.57c0-4.17,2.84-7.57,6.31-7.57h39.08C248.1,0,250.93,3.4,250.93,7.57Z"/><path class="b" d="M209,18.28a1.43,1.43,0,0,1-.39-1.06V8.66a1.39,1.39,0,0,1,.35-1,1.39,1.39,0,0,1,1-.35H214a4.2,4.2,0,0,1,2.91,1,3.43,3.43,0,0,1,1,2.65,3.4,3.4,0,0,1-1.05,2.64,4.14,4.14,0,0,1-2.9,1H211.5v2.72a1.39,1.39,0,0,1-.4,1.06,1.44,1.44,0,0,1-1.08.4A1.42,1.42,0,0,1,209,18.28Zm4.67-6a1.83,1.83,0,0,0,1.2-.33,1.28,1.28,0,0,0,.4-1c0-.93-.54-1.4-1.6-1.4H211.5v2.77Z"/><path class="b" d="M229.17,17.52a1,1,0,0,1-.43.86,1.5,1.5,0,0,1-1,.34,1.47,1.47,0,0,1-.72-.17,1.62,1.62,0,0,1-.58-.53l-2.08-3a1.61,1.61,0,0,0-.47-.47,1.09,1.09,0,0,0-.58-.15h-1v2.86a1.43,1.43,0,0,1-.39,1.06,1.36,1.36,0,0,1-1.05.4,1.36,1.36,0,0,1-1.46-1.46V8.66a1.39,1.39,0,0,1,.35-1,1.39,1.39,0,0,1,1-.35h4a4.64,4.64,0,0,1,3.08.89,3.2,3.2,0,0,1,1,2.57,3.41,3.41,0,0,1-.7,2.16,3.49,3.49,0,0,1-2,1.2,2.13,2.13,0,0,1,.92.35,3.37,3.37,0,0,1,.78.81l1,1.43A1.51,1.51,0,0,1,229.17,17.52Zm-3.47-5.68a1.11,1.11,0,0,0,.43-1,1.14,1.14,0,0,0-.43-1,2.39,2.39,0,0,0-1.4-.32h-2v2.63h2A2.4,2.4,0,0,0,225.7,11.84Z"/><path class="b" d="M233,18a4.81,4.81,0,0,1-2-2,6.47,6.47,0,0,1-.68-3.07A6.45,6.45,0,0,1,231,9.87a4.81,4.81,0,0,1,2-2,6.78,6.78,0,0,1,6,0,4.73,4.73,0,0,1,2,2,6.45,6.45,0,0,1,.68,3.06,6.47,6.47,0,0,1-.68,3.07,4.87,4.87,0,0,1-2,2,6.67,6.67,0,0,1-6,0Zm5-2.45a4.14,4.14,0,0,0,.72-2.63,4.05,4.05,0,0,0-.73-2.62,2.4,2.4,0,0,0-2-.9,2.44,2.44,0,0,0-2,.89,4.1,4.1,0,0,0-.72,2.63,4.12,4.12,0,0,0,.72,2.64,2.42,2.42,0,0,0,2,.9A2.39,2.39,0,0,0,238,15.56Z"/></svg>