<svg version="1" xmlns="http://www.w3.org/2000/svg" width="933.333" height="933.333" viewBox="0 0 700.000000 700.000000"><path d="M0 350v350h700V0H0v350zm406.7-203.6c16.9 2.2 35.6 6.1 49.2 10.2 11.2 3.4 26.6 9.7 28.7 11.8.8.8-2.2 9.9-11.2 33.6-6.8 17.9-12.8 33.5-13.4 34.8l-1 2.2-6.8-3.4c-15.4-7.8-42.2-14.9-66.2-17.6-12.8-1.5-40-1.5-47.8 0-21.1 3.8-34.4 12.8-38.3 26.1-1.8 5.9-.7 18.6 2 24.2 7.2 14.7 26.8 25.3 86.6 46.8 42.2 15.2 63.8 27.9 82.8 48.8 7.9 8.6 11.3 13.3 15.5 21.8 9.6 18.9 11.6 50.8 5.1 78.6-10.3 44-44.1 74.4-94.9 85.7-32.3 7.2-71.8 7.8-112.6 1.9-25.6-3.6-53.8-10.5-70.3-17.1-4.1-1.6-7.9-3.1-8.2-3.4-.4-.2 1.2-5.2 3.6-11.2 2.3-5.9 8.6-21.8 13.9-35.4l9.7-24.6 7.2 3.3c7.8 3.6 31.9 11.3 43.2 13.9 8.7 2 22.8 4.2 31.9 5.1 10.6 1 37.2.7 45.6-.5 26.2-4 39.5-11.1 46.2-24.8 3.1-6.3 3.3-7.3 3.3-17.2 0-9.4-.3-11-2.7-15.5-7.8-14.8-25.4-24-86.7-45.6-25.8-9.1-42.3-16.8-56.9-26.6-23.3-15.6-41.2-38.8-46.6-60.3-5.9-23.6-3.7-55.9 5.3-77.7 16.6-40.3 52.4-62.4 113.1-69.7 8.5-1 59.1.3 70.7 1.8z"/></svg>