<?xml version="1.0" encoding="utf-8"?>
<!-- Generator: Adobe Illustrator 20.0.0, SVG Export Plug-In . SVG Version: 6.00 Build 0)  -->
<svg version="1.1" id="Layer_1" xmlns="http://www.w3.org/2000/svg" xmlns:xlink="http://www.w3.org/1999/xlink" x="0px" y="0px"
	 viewBox="0 0 236 218" style="enable-background:new 0 0 236 218;" xml:space="preserve">
<style type="text/css">
	.st0{fill:#333333;}
</style>
<g>
	<g>
		<g>
			<path class="st0" d="M120,0c2.7,1.6,5.8,1.2,8.6,2c15.8,4.5,27.7,18.9,28.5,34.9c0.9,18.1-8.4,33.3-24.7,39.4
				c-3.6,1.4-4.7,3.2-4.6,6.9c0.1,36,0.1,72,0.1,108c0,5.6,0.1,5.8,5.5,4.8c31-5.7,53.2-23.1,67.5-51c1.4-2.8,0.8-4.5-1.6-6.3
				c-3.8-2.9-7.5-6.1-11.2-9.2c-0.2-0.2-0.2-0.6-0.4-0.9c0.9-1.4,2.4-1.7,3.8-2.2c12.3-5.2,24.5-10.4,36.8-15.5
				c5.5-2.3,7.5-1.1,7.6,4.7c0.1,12.7-0.1,25.3,0.1,38c0,3.8-1,4.6-4.6,3.1c-3.9-1.6-8.1-5.4-11.9-3.9c-3.5,1.4-4.3,6.8-6.5,10.3
				c-19,30.8-46.3,48.9-82.4,53.7c-1.6,0.2-3.4-0.3-4.7,1.2c-5.7,0-11.3,0-17,0c-3.6-2.1-7.7-1.7-11.5-2.5
				c-35.3-7.1-60.9-27.1-77.9-58.6c-2.9-5.4-2.9-5.4-8.6-3.1c-2.6,1.1-5.2,2.1-7.9,3.2C1.1,158,0,157.4,0,155c0-13.7-0.1-27.3,0-41
				c0-3,1.6-5.5,5.1-4.1c14.5,5.9,28.8,12,44.1,18.5c-4.9,4-9.1,7.6-13.4,10.9c-2.1,1.6-2.4,3.1-1.2,5.5
				c14.3,28.4,37,45.6,68.3,51.4c4.2,0.8,5.1-0.6,5.1-4.5c-0.1-36.3-0.1-72.6,0-109c0-3.7-1.4-5.2-4.7-6.4
				c-16.9-6.4-26.3-22.5-24.5-41.4c1.5-16.3,15.4-30.8,32.3-33.7c1.6-0.3,3.4,0.1,4.7-1.2C117.3,0,118.6,0,120,0z M137.7,39.9
				c-0.1-10.7-9.2-19.7-19.9-19.6c-10.8,0.1-19.7,9.1-19.7,19.8c0.1,10.7,9.2,19.7,19.9,19.6C128.8,59.6,137.8,50.5,137.7,39.9z"/>
		</g>
	</g>
	<g>
		<g>
			<path class="st0" d="M120,0c2.7,1.6,5.8,1.2,8.6,2c15.8,4.5,27.7,18.9,28.5,34.9c0.9,18.1-8.4,33.3-24.7,39.4
				c-3.6,1.4-4.7,3.2-4.6,6.9c0.1,36,0.1,72,0.1,108c0,5.6,0.1,5.8,5.5,4.8c31-5.7,53.2-23.1,67.5-51c1.4-2.8,0.8-4.5-1.6-6.3
				c-3.8-2.9-7.5-6.1-11.2-9.2c-0.2-0.2-0.2-0.6-0.4-0.9c0.9-1.4,2.4-1.7,3.8-2.2c12.3-5.2,24.5-10.4,36.8-15.5
				c5.5-2.3,7.5-1.1,7.6,4.7c0.1,12.7-0.1,25.3,0.1,38c0,3.8-1,4.6-4.6,3.1c-3.9-1.6-8.1-5.4-11.9-3.9c-3.5,1.4-4.3,6.8-6.5,10.3
				c-19,30.8-46.3,48.9-82.4,53.7c-1.6,0.2-3.4-0.3-4.7,1.2c-5.7,0-11.3,0-17,0c-3.6-2.1-7.7-1.7-11.5-2.5
				c-35.3-7.1-60.9-27.1-77.9-58.6c-2.9-5.4-2.9-5.4-8.6-3.1c-2.6,1.1-5.2,2.1-7.9,3.2C1.1,158,0,157.4,0,155c0-13.7-0.1-27.3,0-41
				c0-3,1.6-5.5,5.1-4.1c14.5,5.9,28.8,12,44.1,18.5c-4.9,4-9.1,7.6-13.4,10.9c-2.1,1.6-2.4,3.1-1.2,5.5
				c14.3,28.4,37,45.6,68.3,51.4c4.2,0.8,5.1-0.6,5.1-4.5c-0.1-36.3-0.1-72.6,0-109c0-3.7-1.4-5.2-4.7-6.4
				c-16.9-6.4-26.3-22.5-24.5-41.4c1.5-16.3,15.4-30.8,32.3-33.7c1.6-0.3,3.4,0.1,4.7-1.2C117.3,0,118.6,0,120,0z M137.7,39.9
				c-0.1-10.7-9.2-19.7-19.9-19.6c-10.8,0.1-19.7,9.1-19.7,19.8c0.1,10.7,9.2,19.7,19.9,19.6C128.8,59.6,137.8,50.5,137.7,39.9z"/>
		</g>
	</g>
</g>
</svg>
