<?xml version="1.0" encoding="utf-8"?>
<!-- Generator: Adobe Illustrator 20.0.0, SVG Export Plug-In . SVG Version: 6.00 Build 0)  -->
<svg version="1.1" id="Layer_1" xmlns="http://www.w3.org/2000/svg" xmlns:xlink="http://www.w3.org/1999/xlink" x="0px" y="0px"
	 viewBox="0 0 351.7 351.7" style="enable-background:new 0 0 351.7 351.7;" xml:space="preserve">
<style type="text/css">
	.st0{fill:#333333;stroke:#F58220;stroke-width:0.216;stroke-miterlimit:10;}
	.st1{fill:#FFFFFF;}
	.st2{fill:#333333;}
</style>
<path class="st0" d="M58,0h235.7c31.9,0,58,26.1,58,58v235.7c0,31.9-26.1,58-58,58H58c-31.9,0-58-26.1-58-58V58C0,26.1,26.1,0,58,0z
	"/>
<path class="st1" d="M136.2,67.3h47.6c17.6,2.1,43.1,17.1,52.6,37.2c2.6,5.6,4,6.5,6.1,23.1c1.2,8.6,1.7,14.9,5.5,18.4
	c5.4,4.9,25.4,1.6,29.4,4.7l3,2.4l1.8,3.7l0.6,3l-0.4,55c-0.2,37.4-30.6,68-68,68h-78.2c-37.4,0-68-30.6-68-68v-79.4
	C68.2,98,98.8,67.3,136.2,67.3z"/>
<path class="st2" d="M137.1,123h37.7c7.2,0,13,5.8,13,13l0,0c0,7.1-5.8,13-13,13h-37.7c-7.2,0-13-5.9-13-13l0,0
	C124.1,128.8,129.9,123,137.1,123z"/>
<path class="st2" d="M137.1,200.9h76.7c7.1,0,13,5.8,13,13l0,0c0,7.1-5.8,13-13,13h-76.7c-7.2,0-13-5.9-13-13l0,0
	C124.1,206.7,129.9,200.9,137.1,200.9z"/>
</svg>
