<?xml version="1.0" encoding="utf-8"?>
<!-- Generator: Adobe Illustrator 20.0.0, SVG Export Plug-In . SVG Version: 6.00 Build 0)  -->
<svg version="1.1" id="Grav-logo.fw-Page_x25_201" xmlns="http://www.w3.org/2000/svg" xmlns:xlink="http://www.w3.org/1999/xlink"
	 x="0px" y="0px" viewBox="0 0 186 186" style="enable-background:new 0 0 186 186;" xml:space="preserve">
<style type="text/css">
	.st0{fill:none;}
	.st1{fill:#333333;}
</style>
<path class="st0" d="z"/>
<g id="Layer_1_1">
	<g>
		<path class="st1" d="M98.4,69.5c1.1-1.1,1.1-2.8,0-3.9c-1.1-1.1-2.8-1.1-3.9,0c-1.1,1.1-1.1,2.8,0,3.9
			C95.6,70.6,97.3,70.6,98.4,69.5z"/>
		<path class="st1" d="M88.6,71.4c-1.1,1.1-1.1,2.8,0,3.9c1.1,1.1,2.8,1.1,3.9,0c1.1-1.1,1.1-2.8,0-3.9
			C91.5,70.4,89.7,70.4,88.6,71.4z"/>
		<path class="st1" d="M105.7,72.9c-1.7-1.7-4.5-1.7-6.1,0l-3.6,3.6c-1.7,1.7-1.7,4.4,0,6.1l4,4c1.7,1.7,4.5,1.7,6.1,0l3.6-3.6
			c1.7-1.7,1.7-4.4,0-6.1L105.7,72.9z"/>
		<path class="st1" d="M140,59.4c4.6-8.7-1.9-13.8-6.4-18c-7.1-6.7-14.3-9.6-22.4-0.3c-8.1,9.3-3,20.1,4.5,25.4
			C123.2,71.8,135.4,68.2,140,59.4z M127.7,55.9c-2.9-3.4,2.5-9.7,5.9-5.9C139.8,56.8,130.6,59.3,127.7,55.9z"/>
		<path class="st1" d="M92.8,0.6C41.5,0.6,0,42.1,0,93.3C0,144.5,41.5,186,92.8,186c51.2,0,92.8-41.5,92.8-92.7
			C185.6,42.1,144,0.6,92.8,0.6z M142.9,108.5c-9.7-6.4-15.2-11.8-20-21.5c-3.3,6.6-11,16.5-24,24.2c-6.5,20.1-37.3,58.6-47.2,53.2
			c-3-1.6-3.5-3.7-2.8-5.9C49.6,153,61,140.4,61,140.4s0.2,2.7,3.9,8.2c-4.8-14.9,8-33.3,11.3-39.6c5.3-1.7,5.7-8.5,5.7-8.5
			C82.2,90,77.5,82.3,73,77.8c3.3,4,4.3,10,4.5,15.6c0,0,0,0,0,0c0,0.6,0,1.2,0,1.9c-0.2,4.6-1.5,10.9-4.5,10.9l0,0
			c-3.1-0.1-6.8,0.5-10.2,1.6l-7.4,1.8c0,0,4-0.2,6.1,1.7c-2.4,3.9-7.7,8.7-13.6,11.4c-8.6,4-11.1-3.9-6.7-9.1
			c1.1-1.3,2.2-2.3,3.2-3.2c-0.7-0.7-1.1-1.6-1.2-2.8c0,0,0,0,0,0c-0.6-2.6-0.3-6.1,3.5-11.5c0.7-1.2,1.6-2.3,2.7-3.5
			c0,0,0.1-0.1,0.1-0.1c0-0.1,0.1-0.1,0.1-0.2c0,0,0.1-0.1,0.1-0.1c0.3-0.3,0.5-0.6,0.9-0.9C54.9,86.8,61.9,82,73,77.8
			c12.9-18.9,17.6-22.5,17.6-22.5c1.4-1.5,3.9-3.3,4.8-3.7c-6.7-11.7-8.1-28.2-6.3-32.6c-0.1,0.2-0.3,0.5-0.4,0.7
			c0.7-1.5,1.1-2,1.8-2.8c1.8-2.2,8.1-3.3,10.3,1.3c1.2,2.5,1.4,5.6,1.4,8c-4.9-0.3-9.4,5.4-9.4,5.4s4.1-1.9,9.2-2
			c0,0,1.4,1.2,3,3.4c-2.3,4.3-6,13.3-3.3,22.9c0.5,1.9,1.1,3.5,2,4.9c0,0.1,0.1,0.1,0.1,0.2c0.1,0.1,0.1,0.2,0.2,0.2
			c4.5,6.8,12.7,7.5,12.7,7.5c-3.9-1.9-7-5-9.1-8.7c-1.1-2-1.7-3.7-2.1-5c-2.2-8.4,1-13.3,2.9-16.6c4.2-6.6,11.9-10.5,20.2-9.6
			c11.6,1.3,20,11.8,18.6,23.4c-0.8,7.1-5,13-10.9,16.1c1.4,3.8-0.1,8.4-0.1,8.4c3.5,4.4,3.7,7,3.6,9.3c-4.5-0.8-8.8,2.3-8.8,2.3
			s8.6-2.1,13.7,2.4c3.3,3.5,5.4,6.7,6.7,9c1.9,3.3,10.5,3.6,9.5,9.6C159.8,115.2,153.3,115.3,142.9,108.5z"/>
	</g>
</g>
<path class="st0" d="z"/>
</svg>
