<?xml version="1.0" encoding="utf-8"?>
<!-- Generator: Adobe Illustrator 20.0.0, SVG Export Plug-In . SVG Version: 6.00 Build 0)  -->
<svg version="1.1" id="Layer_1" xmlns="http://www.w3.org/2000/svg" xmlns:xlink="http://www.w3.org/1999/xlink" x="0px" y="0px"
	 viewBox="0 0 193.8 343.5" style="enable-background:new 0 0 193.8 343.5;" xml:space="preserve">
<style type="text/css">
	.st0{fill:#333333;}
	.st1{display:none;}
	.st2{display:inline;}
	.st3{fill:#CC0000;}
</style>
<g id="logo-black">
	<g id="test-tube_1_">
		<path id="tube_1_" class="st0" d="M40.7,343.5L40.7,343.5c-5,0-9.9-0.9-14.6-2.7C6.4,333.3-4,311.9,1.4,292.1L1.2,292l1.3-3.4
			l100.1-260c1.5-3.8,0.8-13,0.1-18.1c-0.2-1.2-0.2-2.3,0.1-3.4l0.1-0.2c0.1-0.2,0.1-0.4,0.2-0.6c1.6-4.2,6.5-6.3,14.5-6.3
			c9.6,0,22.9,3,36.5,8.2c11.4,4.4,21.8,9.9,29.1,15.4c8.6,6.5,12,12.3,10.1,17.3c-0.1,0.2-0.2,0.4-0.3,0.6l-0.1,0.2
			c-0.5,1-1.2,1.8-2.1,2.5c-4.4,3.9-10.9,10.5-12,13.5L77.5,321.2l-0.2-0.1C70.2,334.8,56.3,343.5,40.7,343.5z M9.4,290.2l-0.3,0.7
			c-6.4,17.2,2.3,36.6,19.5,43.2c3.9,1.5,7.9,2.2,12,2.2c13.9,0,26.2-8.3,31.3-21.3l0.4-0.9l99.6-258.9c2.1-5.6,12-14.5,14-16.3
			l0.2-0.2c0.2-0.1,0.3-0.2,0.3-0.3l0.1-0.1c0.1-0.7-0.8-3.8-7.8-9.2c-6.7-5.1-16.4-10.2-27.3-14.4c-12.6-4.9-25.4-7.8-34-7.8
			c-5.7,0-7.6,1.2-7.9,1.8v0.1c0,0.1,0,0.2,0,0.4v0.1c0.2,1.5,2.1,14.8-0.5,21.7L9.4,290.2z"/>
		<path id="liquid_1_" class="st0" d="M137.5,125.6c0,0-13.8,15.9-26.4,21.6c-12.5,5.6-21.9,4.2-33.2,10.8s-17,15.8-17,15.8
			l-46,119.7c-5,13.5,2.4,29.3,16.1,34.6c13.7,5.3,29.2-1.7,34.5-15.1l0,0L137.5,125.6z M91.2,194.7c2.2-1,4.8,0,5.7,2.2
			c1,2.2,0,4.8-2.2,5.7c-2.2,1-4.8,0-5.7-2.2C87.9,198.2,89,195.6,91.2,194.7z M72.7,175c1.5-0.6,3.2,0,3.8,1.5
			c0.6,1.5,0,3.2-1.5,3.8s-3.2,0-3.8-1.5S71.3,175.6,72.7,175z M52.4,242.7c-2.2,1-4.8,0-5.7-2.2c-1-2.2,0-4.8,2.2-5.7
			c2.2-1,4.8,0,5.7,2.2C55.7,239.2,54.7,241.7,52.4,242.7z M56.5,227c-1.8-4.1,0-8.9,4.1-10.8c4.1-1.8,8.9,0,10.8,4.1
			c1.8,4.1,0,8.9-4.1,10.8C63.1,232.9,58.3,231.1,56.5,227z M66.9,268.5c1.5-0.6,3.2,0,3.8,1.5c0.6,1.5,0,3.2-1.5,3.8
			c-1.5,0.6-3.2,0-3.8-1.5C64.8,270.9,65.4,269.2,66.9,268.5z"/>
		
			<ellipse id="top_1_" transform="matrix(0.359 -0.9333 0.9333 0.359 69.6254 153.9402)" class="st0" cx="146.9" cy="26.3" rx="7.3" ry="27.8"/>
	</g>
</g>
<g id="logo-black-red" class="st1">
	<g id="test-tube_2_" class="st2">
		<path id="tube_2_" d="M40.7,343.5L40.7,343.5c-5,0-9.9-0.9-14.6-2.7C6.4,333.3-4,311.9,1.4,292.1L1.2,292l1.3-3.4l100.1-260
			c1.5-3.8,0.8-13,0.1-18.1c-0.2-1.2-0.2-2.3,0.1-3.4l0.1-0.2c0.1-0.2,0.1-0.4,0.2-0.6c1.6-4.2,6.5-6.3,14.5-6.3
			c9.6,0,22.9,3,36.5,8.2c11.4,4.4,21.8,9.9,29.1,15.4c8.6,6.5,12,12.3,10.1,17.3c-0.1,0.2-0.2,0.4-0.3,0.6l-0.1,0.2
			c-0.5,1-1.2,1.8-2.1,2.5c-4.4,3.9-10.9,10.5-12,13.5L77.5,321.2l-0.2-0.1C70.2,334.8,56.3,343.5,40.7,343.5z M9.4,290.2l-0.3,0.7
			c-6.4,17.2,2.3,36.6,19.5,43.2c3.9,1.5,7.9,2.2,12,2.2c13.9,0,26.2-8.3,31.3-21.3l0.4-0.9l99.6-258.9c2.1-5.6,12-14.5,14-16.3
			l0.2-0.2c0.2-0.1,0.3-0.2,0.3-0.3l0.1-0.1c0.1-0.7-0.8-3.8-7.8-9.2c-6.7-5.1-16.4-10.2-27.3-14.4c-12.6-4.9-25.4-7.8-34-7.8
			c-5.7,0-7.6,1.2-7.9,1.8v0.1c0,0.1,0,0.2,0,0.4v0.1c0.2,1.5,2.1,14.8-0.5,21.7L9.4,290.2z"/>
		<path id="liquid_2_" class="st3" d="M137.5,125.6c0,0-13.8,15.9-26.4,21.6c-12.5,5.6-21.9,4.2-33.2,10.8s-17,15.8-17,15.8
			l-46,119.7c-5,13.5,2.4,29.3,16.1,34.6c13.7,5.3,29.2-1.7,34.5-15.1l0,0L137.5,125.6z M91.2,194.7c2.2-1,4.8,0,5.7,2.2
			c1,2.2,0,4.8-2.2,5.7c-2.2,1-4.8,0-5.7-2.2C87.9,198.2,89,195.6,91.2,194.7z M72.7,175c1.5-0.6,3.2,0,3.8,1.5
			c0.6,1.5,0,3.2-1.5,3.8s-3.2,0-3.8-1.5S71.3,175.6,72.7,175z M52.4,242.7c-2.2,1-4.8,0-5.7-2.2c-1-2.2,0-4.8,2.2-5.7
			c2.2-1,4.8,0,5.7,2.2C55.7,239.2,54.7,241.7,52.4,242.7z M56.5,227c-1.8-4.1,0-8.9,4.1-10.8c4.1-1.8,8.9,0,10.8,4.1
			c1.8,4.1,0,8.9-4.1,10.8C63.1,232.9,58.3,231.1,56.5,227z M66.9,268.5c1.5-0.6,3.2,0,3.8,1.5c0.6,1.5,0,3.2-1.5,3.8
			c-1.5,0.6-3.2,0-3.8-1.5C64.8,270.9,65.4,269.2,66.9,268.5z"/>
		<ellipse id="top_2_" transform="matrix(0.359 -0.9333 0.9333 0.359 69.6254 153.9402)" cx="146.9" cy="26.3" rx="7.3" ry="27.8"/>
	</g>
	<path id="jekyll-text_1_" class="st2" d="M-462.4,158.8c4.4,3.5,12.4,1.5,17.8-4.4c5.6-6.2,6.5-14.1,2.1-17.7
		c-4.4-3.5-12.4-1.5-17.8,4.7C-466,147.6-467,155.2-462.4,158.8z M-475.5,170.3c-1.2,0-3.2,2.1-1.5,2.9c2.4,0.9,3.5,2.9,3.5,5.9
		c-2.1,12.1-17.1,26-23.1,30.7c-1.5,1.5,0.6,4.7,2.1,3.5c3.2-2.6,10-7.9,15.6-15c-9.1,20.4-26.9,46.6-33.7,55.8
		c-26.6,36.9-67,70.8-94.8,70.8c-22.2,0-41-15-45.1-37.2c-0.3-2.4-3.5-2.9-2.9,0.3c5,30.4,28.4,42.1,56.7,42.1
		c31,0,67.4-22.5,87.4-45.4c32.4-37.2,53.5-79.9,47.8-104.1C-465.7,171.5-472,170-475.5,170.3z M-276.3,251.1
		c8.5-2.1,15.6-6.8,15.6-14.2c0-0.7-1.5-0.7-1.5,0c0,4.4-5,8-10.6,8.9c-13.2,2.1-39.5-13.5-51.9-29.5c13.2,5,40.4-2.3,53.2-11.4
		c11.8-8.5,16.5-18,17.5-25.7c1.5-12.6-12.4-20.1-31.6-12.6c-12.4,5-27.2,15.9-42.5,36.3c16.2-26.9,48.1-70.5,79.4-98.5
		c38.1-33.9,60.2-27.4,26,8.5c-14.1,14.7-40.7,33.9-59.1,42.2c-5.6,2.4-2.9,5.6,1.2,3.8c19.5-8.5,45.4-26.3,61.1-41
		c46.3-44.5,7.7-78.1-43.7-31c-34.8,32.2-57.6,65.8-77.3,109.4c-6.8,8.2-11.8,15-18.1,20.4c-0.7,0.6-1.3,1.3-1.8,1.9
		c-17,14.6-43.8,34.3-60.5,34.6c-11.8,0.3-16.8-8.5-14.7-20.1c3.2-18,21.9-39.2,37.8-46.6c20.7-9.4,32.8,8.8,5.6,23.6
		c-10.3,5.3-22.8,8.2-27.8,8.2c-5.9,0-5.3,2.4-0.3,2.6c8.2,0.3,21.6-3.2,30.4-7.4c27.8-13.2,29.5-38-0.6-38.9
		c-32.8-1.2-72,26.9-71.7,62c0.3,15.9,13,24.5,30.4,24.5c29-0.3,54.9-22.4,76-41.7c3-2.5,6-5.3,8.9-8.2
		c-7.4,18.9-11.2,36.3-9.4,49.2c1.2,9.4,6.5,13.8,10.6,17.3c0.9,0.6,2.6,0,1.5-1.8c-6.2-7.4-4.4-29.3,4.1-50.4
		C-333,239.7-305.3,257.6-276.3,251.1z M-311.1,189.6c33.9-30.4,47.2-3.2,25.7,13.2c-11.2,8.5-33.4,15-40.4,10.9l-1.5-0.9
		c-0.9-1.5-1.8-2.9-2.4-4.4C-324.1,201.7-317.6,195.6-311.1,189.6z M-122.8,155.2c13.5,1.5,7.9-15-5.9-10.9
		c-6.2,1.8-12.1,13.5-16.5,23.9c-13.5,20.4-36.3,48-52.3,62.5c-14.1,12.1-27.2,15.3-11.2-7.4c6.5-9.1,14.7-18.9,19.5-28.6
		c11.2-24.5-12.7-35.4-31.9-20.7c-11.2,8.5-26.3,26.3-38.1,36c-3.2,2.6-2.4,6.5,0.9,3.8c9.4-7.6,26-25.1,40.1-35.4
		c11.8-9.1,16.5-3.2,9.7,4.4c-9.4,10.9-26,29.8-30.1,41.9c-5.9,18,1.2,26,12.9,26c16.2,0,40.4-25.4,56.7-45.4
		c5.3-6.8,11.2-14.7,16.2-22.4c-14.1,27.4-28.9,55.2-47.2,80.2c-26,35.4-58.5,62-89.2,62c-22.2,0-41.3-15-45.4-37.2
		c-0.3-2.4-3.2-2.9-2.9,0.3c5,30.4,28.4,42.1,56.7,42.1c31,0,60.8-18,81.7-40.1c42.2-44.5,47.2-94.7,60.2-122.7
		C-132.8,155.2-127.2,154.6-122.8,155.2z M48.8,112.2c6.2-10.6,5.9-18.9-8.5-18.9c-10.9,0.3-30.7,7.9-39.8,15
		c-2.1,2.1-1.2,3.2,1.5,2.1c1.8-0.6,3.8-1.8,5.9-2.6c10.3-5.6,6.2,6.2,3.8,10.6c-12.4,21.6-34.2,51.9-45.7,67
		c-5.5,7.4-11.7,14.8-17.8,21.1c-11.1,10.5-33,29.2-49.5,35.4c-53.8,20.1,14.7-71.4,20.4-78.7c12.7-15.9,41-43.6,49.5-57.5
		c6.2-10.5,5.9-18.7-8.5-18.7c-11,0.3-30.7,7.9-39.8,15c-2.1,2.1-1.2,3.2,1.5,2.1c1.8-0.6,3.8-1.8,5.9-2.6
		c10.3-5.6,6.2,6.2,3.8,10.6c-12.4,21.6-34.2,51.9-45.7,67c-9.4,12.6-21,25.4-29.8,32.4c-3.5,2.9-1.5,5.6,2.1,3.2
		c3.2-2.1,7.9-6.8,13.2-12.4c-9.7,19.5-17.8,46.9,7.9,50.1c21.9,3,47.9-19.4,64.7-35.9c1.8-1.8,3.9-3.8,6-6c0.5-0.5,1-1,1.5-1.5
		c-9.7,19.5-17.7,46.8,8,50c28.1,3.8,62.9-33.9,76.4-47.7c2.6-2.6,1.8-7.1-2.6-2.6c-7.9,8.2-34.8,32.7-54.4,40.1
		C-75,268.9-6.5,177.4-0.8,170.1C11.9,153.8,40.3,126.2,48.8,112.2z"/>
</g>
</svg>
