<?xml version="1.0" encoding="utf-8"?>
<!-- Generator: Adobe Illustrator 20.0.0, SVG Export Plug-In . SVG Version: 6.00 Build 0)  -->
<svg version="1.1" id="Layer_1" xmlns="http://www.w3.org/2000/svg" xmlns:xlink="http://www.w3.org/1999/xlink" x="0px" y="0px"
	 viewBox="0 0 256 251" style="enable-background:new 0 0 256 251;" xml:space="preserve">
<style type="text/css">
	.st0{fill:#333333;}
</style>
<g>
	<g>
		<path class="st0" d="M0.4,0.4l218.9,231.8c0,0,7.5,5.3,13.2-0.9c5.7-6.1,1.3-12.3,1.3-12.3L0.4,0.4L0.4,0.4z"/>
		<path class="st0" d="M69.7,22.4L236.4,202c0,0,7.5,5.3,13.2-0.9c5.7-6.1,1.3-12.3,1.3-12.3L69.7,22.4L69.7,22.4z"/>
		<path class="st0" d="M21.1,69.2l166.7,179.7c0,0,7.5,5.3,13.2-0.9c5.7-6.1,1.3-12.3,1.3-12.3L21.1,69.2L21.1,69.2z"/>
		<path class="st0" d="M128.3,41.2l116.4,125.5c0,0,5.2,3.7,9.2-0.6c4-4.3,0.9-8.6,0.9-8.6L128.3,41.2L128.3,41.2z"/>
		<path class="st0" d="M37.1,123.6l116.4,125.5c0,0,5.2,3.7,9.2-0.6c4-4.3,0.9-8.6,0.9-8.6L37.1,123.6L37.1,123.6z"/>
		<path class="st0" d="M188.2,68.4l52.8,57.1c0,0,2.6,1.7,4.5-0.3s0.5-4,0.5-4L188.2,68.4L188.2,68.4z"/>
		<path class="st0" d="M66.2,181.4l52.8,57.1c0,0,2.6,1.7,4.5-0.3c2-2,0.5-4,0.5-4L66.2,181.4L66.2,181.4z"/>
	</g>
</g>
</svg>
