<?xml version="1.0" encoding="utf-8"?>
<!-- Generator: Adobe Illustrator 20.0.0, SVG Export Plug-In . SVG Version: 6.00 Build 0)  -->
<svg version="1.1" id="Layer_1" xmlns="http://www.w3.org/2000/svg" xmlns:xlink="http://www.w3.org/1999/xlink" x="0px" y="0px"
	 viewBox="0 0 238 240.5" enable-background="new 0 0 238 240.5" xml:space="preserve">
<g>
	<g>
		<g>
			<path fill="#818181" d="M122,1c2.655,1.612,5.781,1.212,8.645,2.021c15.774,4.452,27.684,18.896,28.517,34.851
				c0.946,18.131-8.407,33.327-24.678,39.403c-3.645,1.361-4.66,3.249-4.647,6.942c0.121,35.987,0.066,71.974,0.079,107.961
				c0.002,5.617,0.083,5.838,5.512,4.842c31.017-5.692,53.25-23.05,67.493-51.007c1.427-2.802,0.792-4.525-1.583-6.329
				c-3.84-2.918-7.483-6.094-11.188-9.188c-0.219-0.183-0.246-0.596-0.367-0.915c0.878-1.389,2.441-1.659,3.778-2.226
				c12.266-5.203,24.544-10.379,36.837-15.519c5.51-2.304,7.53-1.089,7.559,4.666c0.065,12.662-0.079,25.325,0.068,37.986
				c0.045,3.843-1.005,4.616-4.593,3.125c-3.927-1.631-8.076-5.428-11.919-3.886c-3.506,1.407-4.303,6.78-6.479,10.301
				c-19.049,30.828-46.346,48.948-82.375,53.734c-1.579,0.21-3.401-0.268-4.658,1.238c-5.667,0-11.333,0-17,0
				c-3.557-2.132-7.68-1.716-11.529-2.492c-35.318-7.114-60.905-27.109-77.891-58.561c-2.928-5.422-2.878-5.449-8.55-3.116
				c-2.618,1.077-5.245,2.132-7.852,3.235c-2.097,0.888-3.131,0.335-3.129-2.043c0.013-13.661-0.081-27.322,0.05-40.981
				c0.029-3.016,1.614-5.531,5.127-4.095c14.453,5.906,28.816,12.033,44.099,18.451c-4.941,4.035-9.079,7.581-13.407,10.877
				c-2.148,1.636-2.388,3.136-1.198,5.495c14.323,28.409,36.984,45.617,68.346,51.413c4.243,0.784,5.102-0.609,5.09-4.52
				c-0.108-36.317-0.112-72.635,0.011-108.953c0.012-3.65-1.361-5.176-4.658-6.422c-16.894-6.385-26.312-22.488-24.538-41.414
				C82.497,19.57,96.373,5.102,113.26,2.154C114.857,1.876,116.646,2.298,118,1C119.333,1,120.667,1,122,1z M139.772,40.893
				c-0.08-10.705-9.167-19.652-19.879-19.572c-10.752,0.08-19.745,9.128-19.665,19.785c0.08,10.703,9.169,19.652,19.879,19.572
				C130.857,60.598,139.852,51.548,139.772,40.893z"/>
		</g>
	</g>
	<g>
		<g>
			<path d="M122,1c2.655,1.612,5.781,1.212,8.645,2.021c15.774,4.452,27.684,18.896,28.517,34.851
				c0.946,18.131-8.407,33.327-24.678,39.403c-3.645,1.361-4.66,3.249-4.647,6.942c0.121,35.987,0.066,71.974,0.079,107.961
				c0.002,5.617,0.083,5.838,5.512,4.842c31.017-5.692,53.25-23.05,67.493-51.007c1.427-2.802,0.792-4.525-1.583-6.329
				c-3.84-2.918-7.483-6.094-11.188-9.188c-0.219-0.183-0.246-0.596-0.367-0.915c0.878-1.389,2.441-1.659,3.778-2.226
				c12.266-5.203,24.544-10.379,36.837-15.519c5.51-2.304,7.53-1.089,7.559,4.666c0.065,12.662-0.079,25.325,0.068,37.986
				c0.045,3.843-1.005,4.616-4.593,3.125c-3.927-1.631-8.076-5.428-11.919-3.886c-3.506,1.407-4.303,6.78-6.479,10.301
				c-19.049,30.828-46.346,48.948-82.375,53.734c-1.579,0.21-3.401-0.268-4.658,1.238c-5.667,0-11.333,0-17,0
				c-3.557-2.132-7.68-1.716-11.529-2.492c-35.318-7.114-60.905-27.109-77.891-58.561c-2.928-5.422-2.878-5.449-8.55-3.116
				c-2.618,1.077-5.245,2.132-7.852,3.235c-2.097,0.888-3.131,0.335-3.129-2.043c0.013-13.661-0.081-27.322,0.05-40.981
				c0.029-3.016,1.614-5.531,5.127-4.095c14.453,5.906,28.816,12.033,44.099,18.451c-4.941,4.035-9.079,7.581-13.407,10.877
				c-2.148,1.636-2.388,3.136-1.198,5.495c14.323,28.409,36.984,45.617,68.346,51.413c4.243,0.784,5.102-0.609,5.09-4.52
				c-0.108-36.317-0.112-72.635,0.011-108.953c0.012-3.65-1.361-5.176-4.658-6.422c-16.894-6.385-26.312-22.488-24.538-41.414
				C82.497,19.57,96.373,5.102,113.26,2.154C114.857,1.876,116.646,2.298,118,1C119.333,1,120.667,1,122,1z M139.772,40.893
				c-0.08-10.705-9.167-19.652-19.879-19.572c-10.752,0.08-19.745,9.128-19.665,19.785c0.08,10.703,9.169,19.652,19.879,19.572
				C130.857,60.598,139.852,51.548,139.772,40.893z"/>
		</g>
	</g>
</g>
</svg>
