<?xml version="1.0" encoding="utf-8"?>
<!-- Generator: Adobe Illustrator 20.0.0, SVG Export Plug-In . SVG Version: 6.00 Build 0)  -->
<svg version="1.1" id="Layer_1" xmlns="http://www.w3.org/2000/svg" xmlns:xlink="http://www.w3.org/1999/xlink" x="0px" y="0px"
	 viewBox="0 0 351.72 351.72" enable-background="new 0 0 351.72 351.72" xml:space="preserve">
<path fill-rule="evenodd" clip-rule="evenodd" stroke="#F58220" stroke-width="0.216" stroke-miterlimit="10" d="M58.032,0h235.656
	c31.896,0,58.032,26.136,58.032,58.032v235.656c0,31.896-26.136,58.032-58.032,58.032H58.032C26.136,351.72,0,325.584,0,293.688
	V58.032C0,26.136,26.136,0,58.032,0z"/>
<path fill-rule="evenodd" clip-rule="evenodd" fill="#FFFFFF" d="M136.224,67.32h47.592c17.568,2.088,43.128,17.136,52.56,37.152
	c2.592,5.616,3.96,6.48,6.12,23.112c1.152,8.568,1.728,14.904,5.544,18.432c5.4,4.896,25.416,1.584,29.376,4.68l3.024,2.376
	l1.8,3.744l0.648,3.024l-0.432,55.008c-0.216,37.368-30.6,67.968-68.04,67.968h-78.192c-37.44,0-68.04-30.6-68.04-67.968v-79.416
	C68.184,97.992,98.784,67.32,136.224,67.32z"/>
<path fill-rule="evenodd" clip-rule="evenodd" d="M137.088,122.976h37.728c7.2,0,13.032,5.832,13.032,12.96l0,0
	c0,7.128-5.832,13.032-13.032,13.032h-37.728c-7.2,0-13.032-5.904-13.032-13.032l0,0
	C124.056,128.808,129.888,122.976,137.088,122.976z"/>
<path fill-rule="evenodd" clip-rule="evenodd" d="M137.088,200.88h76.68c7.128,0,12.96,5.832,12.96,12.96l0,0
	c0,7.056-5.832,12.96-12.96,12.96h-76.68c-7.2,0-13.032-5.904-13.032-12.96l0,0C124.056,206.712,129.888,200.88,137.088,200.88z"/>
</svg>
