<?xml version="1.0" encoding="utf-8"?>
<!-- Generator: Adobe Illustrator 19.2.1, SVG Export Plug-In . SVG Version: 6.00 Build 0)  -->
<svg version="1.1" id="Layer_1" xmlns="http://www.w3.org/2000/svg" xmlns:xlink="http://www.w3.org/1999/xlink" x="0px" y="0px"
	 viewBox="0 0 169 31.7" style="enable-background:new 0 0 169 31.7;" xml:space="preserve">
<path d="M99,23.7h-2.1v-23h7c5.7,0,7.7,3.3,7.7,6.9s-2,6.9-7.7,6.9H99L99,23.7L99,23.7z M99,12.6h5.2c4.3,0,5.1-2.8,5.1-5
	s-0.8-5-5.1-5H99V12.6z M119.2,10c-2.1,0-3.4,0.4-4.6,0.8V9c1.3-0.6,3.1-0.8,4.6-0.8c4.6,0,5.8,2.1,5.8,5.1v10.5h-1.2l-0.5-1.2
	c-1.4,1-3.1,1.5-4.6,1.5c-4,0-5.4-2.4-5.4-4.9c0-2.6,1.4-4.5,5.4-4.8l4-0.2v-0.9C122.8,11,122,10,119.2,10z M118.6,16
	c-2.2,0.2-3.1,1.3-3.1,3.1c0,1.4,0.3,3,3.2,3c1.7,0,2.8-0.5,4.1-1.2v-5.3L118.6,16z M131.7,19.4c-0.3,0.3-0.6,0.8-0.6,1.1
	c0,0.8,0.4,1.1,1.2,1.2l5.2,0.6c2.9,0.3,4.2,1.4,4.2,4.1c0,3.7-3.7,5.2-8,5.2c-4.3,0-6.9-1.3-6.9-4.6c0-2.1,1.4-3.5,3.2-4v0
	c-0.6-0.4-1-1-1-2c0-0.9,0.5-1.6,1.2-2.1c-1.8-1-2.4-2.9-2.4-5c0-3.2,1.3-5.8,6-5.8c0.9,0,1.7,0.1,2.4,0.3h5.2v1.2l-2.6,0.7
	c0.6,1,0.9,2.2,0.9,3.6c0,3.2-1.3,5.8-6,5.8C133,19.6,132.3,19.6,131.7,19.4z M132.6,23.6c-2,0.5-3.7,1.4-3.7,3.4
	c0,2.3,1.7,2.9,4.9,2.9c3.1,0,5.9-0.8,5.9-3.4c0-1.6-0.7-2.2-2.6-2.4L132.6,23.6z M137.7,13.9c0-2-0.4-3.9-4-3.9s-4,1.9-4,3.9
	s0.4,3.9,4,3.9S137.7,15.9,137.7,13.9z M149.2,8.1c5.2,0,5.8,3.6,5.8,8v1h-10.1c0.1,2.7,0.8,5.1,4.3,5.1c2.2,0,3.6-0.2,5.1-0.9v1.8
	c-1.7,0.8-3.6,0.9-5.1,0.9c-5.2,0-6.4-3.5-6.4-8S144,8.1,149.2,8.1z M144.9,15.3h8c0-2.7-0.2-5.3-3.7-5.3
	C145.7,10,145,12.6,144.9,15.3z M163.2,14.9c4.3,0.4,5.4,1.9,5.4,4.4c0,2.4-1.5,4.7-6.2,4.7c-1.5,0-3.6-0.4-4.6-0.8v-1.8
	c0.9,0.3,2.4,0.7,4.6,0.7c3.2,0,4-1.3,4-2.8c0-1.4-0.4-2.4-3.5-2.6c-4.4-0.4-5.4-2-5.4-4.1c0-2.2,1.4-4.5,5.7-4.5
	c1.4,0,3.1,0.2,4.4,0.8v1.8c-1.2-0.4-2.4-0.7-4.4-0.7c-3,0-3.7,1.1-3.7,2.6C159.7,14,160.3,14.7,163.2,14.9z M17.2,10.3H9.7
	c-0.2,0-0.4,0.2-0.4,0.4v3.7c0,0.2,0.2,0.4,0.4,0.4h2.9v4.6c0,0-0.7,0.2-2.5,0.2C8,19.5,5,18.7,5,12.1c0-6.6,3.1-7.4,6-7.4
	c2.5,0,3.6,0.4,4.3,0.7c0.2,0.1,0.4-0.2,0.4-0.3l0.8-3.5c0-0.1,0-0.2-0.1-0.3C16.2,1,14.5,0,10.1,0C5.1,0,0,2.1,0,12.4
	c0,10.2,5.9,11.8,10.8,11.8c4.1,0,6.6-1.8,6.6-1.8c0.1-0.1,0.1-0.2,0.1-0.3V10.7C17.5,10.5,17.4,10.3,17.2,10.3z M56.1,1.2
	c0-0.2-0.2-0.4-0.3-0.4h-4.2c-0.2,0-0.3,0.2-0.3,0.4c0,0,0,8.2,0,8.2h-6.6V1.2c0-0.2-0.2-0.4-0.3-0.4h-4.2c-0.2,0-0.3,0.2-0.3,0.4
	v22.1c0,0.2,0.2,0.4,0.3,0.4h4.2c0.2,0,0.3-0.2,0.3-0.4v-9.5h6.6c0,0,0,9.5,0,9.5c0,0.2,0.2,0.4,0.3,0.4h4.2c0.2,0,0.3-0.2,0.3-0.4
	V1.2z M25.3,4.1c0-1.5-1.2-2.7-2.7-2.7c-1.5,0-2.7,1.2-2.7,2.7c0,1.5,1.2,2.8,2.7,2.8C24.1,6.9,25.3,5.6,25.3,4.1z M25,18.7
	c0-0.6,0-10.2,0-10.2c0-0.2-0.2-0.4-0.3-0.4h-4.2c-0.2,0-0.4,0.2-0.4,0.4c0,0,0,12.3,0,14.6c0,0.4,0.3,0.6,0.6,0.6c0,0,1.8,0,3.8,0
	c0.4,0,0.5-0.2,0.5-0.6C25,22.3,25,19.3,25,18.7z M72.5,8.1h-4.2c-0.2,0-0.3,0.2-0.3,0.4v10.8c0,0-1.1,0.8-2.6,0.8
	c-1.5,0-1.9-0.7-1.9-2.2c0-1.5,0-9.4,0-9.4c0-0.2-0.2-0.4-0.3-0.4h-4.3c-0.2,0-0.3,0.2-0.3,0.4c0,0,0,5.8,0,10.2
	c0,4.4,2.4,5.5,5.8,5.5c2.8,0,5-1.5,5-1.5s0.1,0.8,0.2,0.9c0,0.1,0.2,0.2,0.3,0.2l2.7,0c0.2,0,0.3-0.2,0.3-0.4l0-14.8
	C72.9,8.3,72.7,8.1,72.5,8.1z M84.2,7.6c-2.4,0-4,1.1-4,1.1V1.2c0-0.2-0.2-0.4-0.3-0.4h-4.2c-0.2,0-0.3,0.2-0.3,0.4v22.1
	c0,0.2,0.2,0.4,0.3,0.4h2.9c0.1,0,0.2-0.1,0.3-0.2c0.1-0.1,0.2-1,0.2-1s1.7,1.6,5,1.6c3.8,0,6.1-2,6.1-8.8
	C90.1,8.5,86.6,7.6,84.2,7.6z M82.5,20.1c-1.5,0-2.4-0.7-2.4-0.7v-7c0,0,1-0.6,2.2-0.7c1.5-0.1,3,0.3,3,3.9
	C85.2,19.4,84.6,20.2,82.5,20.1z M37.1,8.1h-3.2c0,0,0-4.2,0-4.2c0-0.2-0.1-0.2-0.3-0.2h-4.3c-0.2,0-0.3,0.1-0.3,0.2v4.3
	c0,0-2.2,0.5-2.3,0.6c-0.1,0-0.3,0.2-0.3,0.3v2.7c0,0.2,0.2,0.4,0.3,0.4H29c0,0,0,2.8,0,6.5c0,4.9,3.4,5.3,5.7,5.3
	c1,0,2.3-0.3,2.5-0.4c0.1,0,0.2-0.2,0.2-0.3l0-3c0-0.2-0.2-0.4-0.3-0.4c-0.2,0-0.7,0.1-1.1,0.1c-1.6,0-2.1-0.7-2.1-1.7
	c0-0.9,0-6.2,0-6.2h3.2c0.2,0,0.3-0.2,0.3-0.4V8.5C37.4,8.3,37.2,8.1,37.1,8.1z"/>
</svg>
