<?xml version="1.0" encoding="utf-8"?>
<!-- Generator: Adobe Illustrator 19.2.1, SVG Export Plug-In . SVG Version: 6.00 Build 0)  -->
<svg version="1.1" xmlns="http://www.w3.org/2000/svg" xmlns:xlink="http://www.w3.org/1999/xlink" x="0px" y="0px"
	 viewBox="0 0 300 343.5" style="enable-background:new 0 0 300 343.5;" xml:space="preserve">
<style type="text/css">
	.st0{display:none;}
	.st1{display:inline;}
	.st2{fill:#CC0000;}
</style>
<g id="logo-black">
	<g id="test-tube_1_">
		<path id="tube_1_" d="M93.6,343.5L93.6,343.5c-5,0-9.9-0.9-14.6-2.7c-19.7-7.5-30.1-28.9-24.7-48.7l-0.2-0.1l1.3-3.4L155.5,28.6
			c1.5-3.8,0.8-13,0.1-18.1c-0.2-1.2-0.2-2.3,0.1-3.4l0.1-0.2c0.1-0.2,0.1-0.4,0.2-0.6c1.6-4.2,6.5-6.3,14.5-6.3
			c9.6,0,22.9,3,36.5,8.2c11.4,4.4,21.8,9.9,29.1,15.4c8.6,6.5,12,12.3,10.1,17.3c-0.1,0.2-0.2,0.4-0.3,0.6l-0.1,0.2
			c-0.5,1-1.2,1.8-2.1,2.5c-4.4,3.9-10.9,10.5-12,13.5L130.4,321.2l-0.2-0.1C123.1,334.8,109.2,343.5,93.6,343.5z M62.3,290.2
			l-0.3,0.7c-6.4,17.2,2.3,36.6,19.5,43.2c3.9,1.5,7.9,2.2,12,2.2c13.9,0,26.2-8.3,31.3-21.3l0.4-0.9l99.6-258.9
			c2.1-5.6,12-14.5,14-16.3l0.2-0.2c0.2-0.1,0.3-0.2,0.3-0.3l0.1-0.1c0.1-0.7-0.8-3.8-7.8-9.2c-6.7-5.1-16.4-10.2-27.3-14.4
			c-12.6-4.9-25.4-7.8-34-7.8c-5.7,0-7.6,1.2-7.9,1.8v0.1c0,0.1,0,0.2,0,0.4v0.1c0.2,1.5,2.1,14.8-0.5,21.7L62.3,290.2z"/>
		<path id="liquid_1_" d="M190.4,125.6c0,0-13.8,15.9-26.4,21.6c-12.5,5.6-21.9,4.2-33.2,10.8c-11.3,6.6-17,15.8-17,15.8l-46,119.7
			c-5,13.5,2.4,29.3,16.1,34.6c13.7,5.3,29.2-1.7,34.5-15.1l0,0L190.4,125.6z M144.1,194.7c2.2-1,4.8,0,5.7,2.2c1,2.2,0,4.8-2.2,5.7
			c-2.2,1-4.8,0-5.7-2.2C140.8,198.2,141.9,195.6,144.1,194.7z M125.6,175c1.5-0.6,3.2,0,3.8,1.5c0.6,1.5,0,3.2-1.5,3.8
			c-1.5,0.6-3.2,0-3.8-1.5S124.2,175.6,125.6,175z M105.3,242.7c-2.2,1-4.8,0-5.7-2.2c-1-2.2,0-4.8,2.2-5.7c2.2-1,4.8,0,5.7,2.2
			C108.6,239.2,107.6,241.7,105.3,242.7z M109.4,227c-1.8-4.1,0-8.9,4.1-10.8c4.1-1.8,8.9,0,10.8,4.1c1.8,4.1,0,8.9-4.1,10.8
			C116,232.9,111.2,231.1,109.4,227z M119.8,268.5c1.5-0.6,3.2,0,3.8,1.5c0.6,1.5,0,3.2-1.5,3.8c-1.5,0.6-3.2,0-3.8-1.5
			C117.7,270.9,118.3,269.2,119.8,268.5z"/>
		
			<ellipse id="top_1_" transform="matrix(0.359 -0.9333 0.9333 0.359 103.4953 203.3115)" cx="199.8" cy="26.3" rx="7.3" ry="27.8"/>
	</g>
</g>
<g id="logo-black-red" class="st0">
	<g id="test-tube_2_" class="st1">
		<path id="tube_2_" d="M93.6,343.5L93.6,343.5c-5,0-9.9-0.9-14.6-2.7c-19.7-7.5-30.1-28.9-24.7-48.7l-0.2-0.1l1.3-3.4L155.5,28.6
			c1.5-3.8,0.8-13,0.1-18.1c-0.2-1.2-0.2-2.3,0.1-3.4l0.1-0.2c0.1-0.2,0.1-0.4,0.2-0.6c1.6-4.2,6.5-6.3,14.5-6.3
			c9.6,0,22.9,3,36.5,8.2c11.4,4.4,21.8,9.9,29.1,15.4c8.6,6.5,12,12.3,10.1,17.3c-0.1,0.2-0.2,0.4-0.3,0.6l-0.1,0.2
			c-0.5,1-1.2,1.8-2.1,2.5c-4.4,3.9-10.9,10.5-12,13.5L130.4,321.2l-0.2-0.1C123.1,334.8,109.2,343.5,93.6,343.5z M62.3,290.2
			l-0.3,0.7c-6.4,17.2,2.3,36.6,19.5,43.2c3.9,1.5,7.9,2.2,12,2.2c13.9,0,26.2-8.3,31.3-21.3l0.4-0.9l99.6-258.9
			c2.1-5.6,12-14.5,14-16.3l0.2-0.2c0.2-0.1,0.3-0.2,0.3-0.3l0.1-0.1c0.1-0.7-0.8-3.8-7.8-9.2c-6.7-5.1-16.4-10.2-27.3-14.4
			c-12.6-4.9-25.4-7.8-34-7.8c-5.7,0-7.6,1.2-7.9,1.8v0.1c0,0.1,0,0.2,0,0.4v0.1c0.2,1.5,2.1,14.8-0.5,21.7L62.3,290.2z"/>
		<path id="liquid_2_" class="st2" d="M190.4,125.6c0,0-13.8,15.9-26.4,21.6c-12.5,5.6-21.9,4.2-33.2,10.8
			c-11.3,6.6-17,15.8-17,15.8l-46,119.7c-5,13.5,2.4,29.3,16.1,34.6c13.7,5.3,29.2-1.7,34.5-15.1l0,0L190.4,125.6z M144.1,194.7
			c2.2-1,4.8,0,5.7,2.2c1,2.2,0,4.8-2.2,5.7c-2.2,1-4.8,0-5.7-2.2C140.8,198.2,141.9,195.6,144.1,194.7z M125.6,175
			c1.5-0.6,3.2,0,3.8,1.5c0.6,1.5,0,3.2-1.5,3.8c-1.5,0.6-3.2,0-3.8-1.5S124.2,175.6,125.6,175z M105.3,242.7c-2.2,1-4.8,0-5.7-2.2
			c-1-2.2,0-4.8,2.2-5.7c2.2-1,4.8,0,5.7,2.2C108.6,239.2,107.6,241.7,105.3,242.7z M109.4,227c-1.8-4.1,0-8.9,4.1-10.8
			c4.1-1.8,8.9,0,10.8,4.1c1.8,4.1,0,8.9-4.1,10.8C116,232.9,111.2,231.1,109.4,227z M119.8,268.5c1.5-0.6,3.2,0,3.8,1.5
			c0.6,1.5,0,3.2-1.5,3.8c-1.5,0.6-3.2,0-3.8-1.5C117.7,270.9,118.3,269.2,119.8,268.5z"/>
		
			<ellipse id="top_2_" transform="matrix(0.359 -0.9333 0.9333 0.359 103.4953 203.3115)" cx="199.8" cy="26.3" rx="7.3" ry="27.8"/>
	</g>
	<path id="jekyll-text_1_" class="st1" d="M-409.5,158.8c4.4,3.5,12.4,1.5,17.8-4.4c5.6-6.2,6.5-14.1,2.1-17.7
		c-4.4-3.5-12.4-1.5-17.8,4.7C-413.1,147.6-414.1,155.2-409.5,158.8z M-422.6,170.3c-1.2,0-3.2,2.1-1.5,2.9c2.4,0.9,3.5,2.9,3.5,5.9
		c-2.1,12.1-17.1,26-23.1,30.7c-1.5,1.5,0.6,4.7,2.1,3.5c3.2-2.6,10-7.9,15.6-15c-9.1,20.4-26.9,46.6-33.7,55.8
		c-26.6,36.9-67,70.8-94.8,70.8c-22.2,0-41-15-45.1-37.2c-0.3-2.4-3.5-2.9-2.9,0.3c5,30.4,28.4,42.1,56.7,42.1
		c31,0,67.4-22.5,87.4-45.4c32.4-37.2,53.5-79.9,47.8-104.1C-412.8,171.5-419.1,170-422.6,170.3z M-223.4,251.1
		c8.5-2.1,15.6-6.8,15.6-14.2c0-0.7-1.5-0.7-1.5,0c0,4.4-5,8-10.6,8.9c-13.2,2.1-39.5-13.5-51.9-29.5c13.2,5,40.4-2.3,53.2-11.4
		c11.8-8.5,16.5-18,17.5-25.7c1.5-12.6-12.4-20.1-31.6-12.6c-12.4,5-27.2,15.9-42.5,36.3c16.2-26.9,48.1-70.5,79.4-98.5
		c38.1-33.9,60.2-27.4,26,8.5c-14.1,14.7-40.7,33.9-59.1,42.2c-5.6,2.4-2.9,5.6,1.2,3.8c19.5-8.5,45.4-26.3,61.1-41
		c46.3-44.5,7.7-78.1-43.7-31c-34.8,32.2-57.6,65.8-77.3,109.4c-6.8,8.2-11.8,15-18.1,20.4c-0.7,0.6-1.3,1.3-1.8,1.9
		c-17,14.6-43.8,34.3-60.5,34.6c-11.8,0.3-16.8-8.5-14.7-20.1c3.2-18,21.9-39.2,37.8-46.6c20.7-9.4,32.8,8.8,5.6,23.6
		c-10.3,5.3-22.8,8.2-27.8,8.2c-5.9,0-5.3,2.4-0.3,2.6c8.2,0.3,21.6-3.2,30.4-7.4c27.8-13.2,29.5-38-0.6-38.9
		c-32.8-1.2-72,26.9-71.7,62c0.3,15.9,13,24.5,30.4,24.5c29-0.3,54.9-22.4,76-41.7c3-2.5,6-5.3,8.9-8.2
		c-7.4,18.9-11.2,36.3-9.4,49.2c1.2,9.4,6.5,13.8,10.6,17.3c0.9,0.6,2.6,0,1.5-1.8c-6.2-7.4-4.4-29.3,4.1-50.4
		C-280.1,239.7-252.4,257.6-223.4,251.1z M-258.2,189.6c33.9-30.4,47.2-3.2,25.7,13.2c-11.2,8.5-33.4,15-40.4,10.9l-1.5-0.9
		c-0.9-1.5-1.8-2.9-2.4-4.4C-271.2,201.7-264.7,195.6-258.2,189.6z M-69.9,155.2c13.5,1.5,7.9-15-5.9-10.9
		c-6.2,1.8-12.1,13.5-16.5,23.9c-13.5,20.4-36.3,48-52.3,62.5c-14.1,12.1-27.2,15.3-11.2-7.4c6.5-9.1,14.7-18.9,19.5-28.6
		c11.2-24.5-12.7-35.4-31.9-20.7c-11.2,8.5-26.3,26.3-38.1,36c-3.2,2.6-2.4,6.5,0.9,3.8c9.4-7.6,26-25.1,40.1-35.4
		c11.8-9.1,16.5-3.2,9.7,4.4c-9.4,10.9-26,29.8-30.1,41.9c-5.9,18,1.2,26,12.9,26c16.2,0,40.4-25.4,56.7-45.4
		c5.3-6.8,11.2-14.7,16.2-22.4c-14.1,27.4-28.9,55.2-47.2,80.2c-26,35.4-58.5,62-89.2,62c-22.2,0-41.3-15-45.4-37.2
		c-0.3-2.4-3.2-2.9-2.9,0.3c5,30.4,28.4,42.1,56.7,42.1c31,0,60.8-18,81.7-40.1c42.2-44.5,47.2-94.7,60.2-122.7
		C-79.9,155.2-74.3,154.6-69.9,155.2z M101.7,112.2c6.2-10.6,5.9-18.9-8.5-18.9c-10.9,0.3-30.7,7.9-39.8,15
		c-2.1,2.1-1.2,3.2,1.5,2.1c1.8-0.6,3.8-1.8,5.9-2.6c10.3-5.6,6.2,6.2,3.8,10.6c-12.4,21.6-34.2,51.9-45.7,67
		c-5.5,7.4-11.7,14.8-17.8,21.1c-11.1,10.5-33,29.2-49.5,35.4c-53.8,20.1,14.7-71.4,20.4-78.7c12.7-15.9,41-43.6,49.5-57.5
		C27.7,95.2,27.4,87,13,87C2,87.3-17.7,94.9-26.8,102c-2.1,2.1-1.2,3.2,1.5,2.1c1.8-0.6,3.8-1.8,5.9-2.6c10.3-5.6,6.2,6.2,3.8,10.6
		c-12.4,21.6-34.2,51.9-45.7,67c-9.4,12.6-21,25.4-29.8,32.4c-3.5,2.9-1.5,5.6,2.1,3.2c3.2-2.1,7.9-6.8,13.2-12.4
		c-9.7,19.5-17.8,46.9,7.9,50.1c21.9,3,47.9-19.4,64.7-35.9c1.8-1.8,3.9-3.8,6-6c0.5-0.5,1-1,1.5-1.5c-9.7,19.5-17.7,46.8,8,50
		c28.1,3.8,62.9-33.9,76.4-47.7c2.6-2.6,1.8-7.1-2.6-2.6c-7.9,8.2-34.8,32.7-54.4,40.1c-53.8,20.1,14.7-71.4,20.4-78.7
		C64.8,153.8,93.2,126.2,101.7,112.2z"/>
</g>
</svg>
