<svg xmlns="http://www.w3.org/2000/svg" xmlns:xlink="http://www.w3.org/1999/xlink" viewBox="0 0 2020 475"><symbol id="a" viewBox="0 -50.6 222.7 50.6"><path fill="#F60" d="M213.2-45.7c-.6-2.7-3.4-4.9-6.1-4.9H4c-2.8 0-4.5 2.2-3.9 4.9L9.5-4.9c.7 2.7 3.4 4.9 6.2 4.9h203c2.8 0 4.5-2.2 3.9-4.9l-9.4-40.8z"/><g fill="#FFF"><path d="M91.3-18.9l-4.5-21.3H65.9c-2.3 0-4.1.9-5.4 2.8-1.3 1.9-1.6 4.1-1.1 6.5.5 2.5 1.8 4.6 3.8 6.5 2.1 1.9 4.3 2.8 6.6 2.8h13.6l.5 2.3c.1.6 0 1.2-.3 1.6-.3.5-.8.7-1.4.7h-18l1.6 7.7h18.4c2.5 0 4.5-.9 5.9-2.9 1.3-1.8 1.8-4.1 1.2-6.7zm-21.7-8.9c-.6 0-1.2-.2-1.7-.7-.5-.5-.9-1-1-1.6-.1-.3-.1-.6 0-.9.1-.3.2-.5.3-.7.2-.2.4-.4.6-.5.2-.1.5-.2.8-.2h12.5l1 4.6H69.6zm39.9 3.1l6.7-15.5h-9.4l-3.4 9-7.2-9h-9.3l13.3 15.5-6.8 15.4h9.4l3.4-9 7.2 9h9.4l-13.3-15.4z"/><path d="M143.3-17h-13.9c-.7 0-1.4-.3-2-.8-.6-.5-1-1.2-1.2-1.9l-2.2-10c-.2-.8-.1-1.4.3-1.9s1-.8 1.7-.8h15.8l-1.7-7.7h-16.5c-2.5 0-4.5.9-5.9 2.8-1.4 1.9-1.8 4.2-1.3 6.8l2.5 11.6c.6 2.6 1.9 4.9 4.1 6.8 2.2 1.9 4.6 2.9 7.1 2.9h14.7l-1.5-7.8zM175.7-24.6c.8 3.9 0 7.8-2.4 10.7-2.3 2.9-6 4.6-10 4.6h-14.1l-6.6-30.9h16.8c7.4.5 14.2 6.3 15.8 13.6l.5 2zm-7.7 1.7l-.4-2c-.8-3.9-5.1-7.4-9.2-7.4h-6l3.2 15.2h7.7c1.6 0 3-.6 3.9-1.6.9-1.1 1.1-2.6.8-4.2zM207.6-18.9l-4.5-21.3h-7.3l4.4 20.5c.1.4.1.7 0 1-.1.3-.2.6-.4.9-.2.2-.4.4-.7.6-.3.1-.6.2-.9.2H186l-5-23.2h-7.3l6.6 30.9h20.2c2.5 0 4.5-.9 5.9-2.9 1.3-1.8 1.7-4.1 1.2-6.7zM57.4-13c-1.9 2.4-4.9 3.7-8.1 3.7H18.4l3.7-7.9-4.9-23h8.1l4.9 23H37.1l-4.9-23h8.1l4.9 23h4.1c.9 0 1.6-.3 2-.8.4-.5.6-1.3.4-2.1l-4.3-20.1h8.1l3.9 18.4c.6 3.2-.1 6.4-2 8.8z"/></g></symbol><use xlink:href="#a" width="222.7" height="50.6" y="-50.6" transform="matrix(8.98 0 0 -8.98 10.01 10.38)" overflow="visible"/></svg>