<svg xmlns="http://www.w3.org/2000/svg" viewBox="0 0 369.04 369.04"><defs><style>.cls-1{fill:#28a745;}.cls-2{fill:#ffc107;}.cls-3{fill:#2092ed;}.cls-4{fill:#dd3d31;}.cls-5{fill:#fff;}</style></defs><title>sb-logo-idea</title><g id="Layer_4" data-name="Layer 4"><rect class="cls-1" x="50.52" y="50.52" width="268" height="268" rx="12" ry="12" transform="translate(-56.57 284.38) rotate(-67.5)"/></g><g id="Layer_3" data-name="Layer 3"><rect class="cls-2" x="50.52" y="50.52" width="268" height="268" rx="12" ry="12" transform="translate(-76.43 184.52) rotate(-45)"/></g><g id="Layer_2" data-name="Layer 2"><rect class="cls-3" x="50.52" y="50.52" width="268" height="268" rx="12" ry="12" transform="translate(-56.57 84.66) rotate(-22.5)"/></g><g id="Layer_1" data-name="Layer 1"><rect class="cls-4" x="50.52" y="50.52" width="268" height="268" rx="12" ry="12"/></g><g id="Layer_5" data-name="Layer 5"><path class="cls-5" d="M154.13,255.68q-14.12-3.84-23-10.89a14.4,14.4,0,0,1-4.46-4.88,15.29,15.29,0,0,1,1.86-15.66c2.15-2.63,4.6-3.94,7.37-3.94a14.12,14.12,0,0,1,4.46.72,28.36,28.36,0,0,1,5.29,2.6,69.84,69.84,0,0,0,18,8.19,73.38,73.38,0,0,0,20.12,2.6q13.69,0,21-4.57A14.56,14.56,0,0,0,212,216.78q0-6.42-6.74-10.37t-24-7.47Q162,195,150.49,189.4t-16.8-13.91q-5.3-8.3-5.29-20.12A39.24,39.24,0,0,1,136,131.82q7.58-10.47,21-16.39a74,74,0,0,1,30.18-5.91q29.46,0,48.55,14.73a16.4,16.4,0,0,1,4.46,5.08,13.58,13.58,0,0,1,1.35,6.33,14,14,0,0,1-3.22,9.13c-2.14,2.63-4.6,3.94-7.36,3.94a14.13,14.13,0,0,1-4.25-.62,29.28,29.28,0,0,1-5.5-2.7,87.83,87.83,0,0,0-15.67-8.09q-7.16-2.7-18.15-2.7-12.66,0-19.92,4.88a15.3,15.3,0,0,0-7.26,13.38,12.08,12.08,0,0,0,2.8,8.2q2.81,3.21,9.34,5.7A142.64,142.64,0,0,0,190.85,172q28.22,6.22,40.56,16t12.34,26.77a39,39,0,0,1-7.36,23.44q-7.37,10.17-20.75,15.77t-31,5.6A115.73,115.73,0,0,1,154.13,255.68Z"/></g></svg>